<svg xmlns="http://www.w3.org/2000/svg" width="1600" height="900" viewBox="0 0 1600 900">
  <defs>
    
    <linearGradient id="bg" x1="0" y1="0" x2="1" y2="1">
      <stop offset="0%" stop-color="#05060b" />
      <stop offset="100%" stop-color="#0b1022" />
    </linearGradient>

    
    <linearGradient id="neon" x1="0" y1="0" x2="1" y2="0">
      <stop offset="0%" stop-color="#00e5ff" />
      <stop offset="50%" stop-color="#a855f7" />
      <stop offset="100%" stop-color="#ff4fd8" />
    </linearGradient>

    
    <linearGradient id="lib" x1="0" y1="0" x2="0" y2="1">
      <stop offset="0%" stop-color="#00e5ff" stop-opacity="0.95" />
      <stop offset="100%" stop-color="#7cf6ff" stop-opacity="0.85" />
    </linearGradient>

    
    <linearGradient id="dom" x1="0" y1="0" x2="0" y2="1">
      <stop offset="0%" stop-color="#ff4fd8" stop-opacity="0.95" />
      <stop offset="100%" stop-color="#a855f7" stop-opacity="0.85" />
    </linearGradient>

    <linearGradient id="cardFill" x1="0" y1="0" x2="0" y2="1">
      <stop offset="0%" stop-color="#0c1733" stop-opacity="0.92" />
      <stop offset="100%" stop-color="#070c1a" stop-opacity="0.92" />
    </linearGradient>

    <filter id="glow" x="-70%" y="-70%" width="240%" height="240%">
      <feGaussianBlur stdDeviation="3.2" result="b" />
      <feMerge>
        <feMergeNode in="b" />
        <feMergeNode in="SourceGraphic" />
      </feMerge>
    </filter>

    <filter id="softGlow" x="-70%" y="-70%" width="240%" height="240%">
      <feGaussianBlur stdDeviation="10" result="b" />
      <feColorMatrix type="matrix" values="         1 0 0 0 0         0 1 0 0 0         0 0 1 0 0         0 0 0 0.35 0" result="b2" />
      <feMerge>
        <feMergeNode in="b2" />
        <feMergeNode in="SourceGraphic" />
      </feMerge>
    </filter>

    <marker id="arrow" markerWidth="18" markerHeight="18" refX="11" refY="9" orient="auto">
      <path d="M2,2 L14,9 L2,16" fill="none" stroke="url(#neon)" stroke-width="2.8" stroke-linecap="round" stroke-linejoin="round" />
    </marker>

    <style>
      .title { font-family: Inter, Segoe UI, Roboto, Arial, sans-serif; font-size: 40px; font-weight: 850; fill: #eaf0ff; }
      .sub   { font-family: Inter, Segoe UI, Roboto, Arial, sans-serif; font-size: 18px; font-weight: 500; fill: #a9b7db; }
      .h     { font-family: Inter, Segoe UI, Roboto, Arial, sans-serif; font-size: 24px; font-weight: 850; fill: #eaf0ff; letter-spacing: 0.2px; }
      .t     { font-family: Inter, Segoe UI, Roboto, Arial, sans-serif; font-size: 16px; font-weight: 500; fill: #cdd7f2; }
      .s     { font-family: Inter, Segoe UI, Roboto, Arial, sans-serif; font-size: 14px; font-weight: 500; fill: #a9b7db; }
      .mono  { font-family: ui-monospace, SFMono-Regular, Menlo, Consolas, monospace; font-size: 12px; fill: #9bb0da; }
      .k     { font-family: Inter, Segoe UI, Roboto, Arial, sans-serif; font-size: 14px; font-weight: 700; fill: #dbe6ff; }
    </style>
  </defs>

  
  <rect x="0" y="0" width="1600" height="900" fill="url(#bg)" />

  
  <g opacity="0.12">
    <path d="M0 120 H1600 M0 240 H1600 M0 360 H1600 M0 480 H1600 M0 600 H1600 M0 720 H1600 M0 840 H1600" stroke="#6b7aa8" stroke-width="1" />
    <path d="M160 0 V900 M320 0 V900 M480 0 V900 M640 0 V900 M800 0 V900 M960 0 V900 M1120 0 V900 M1280 0 V900 M1440 0 V900" stroke="#6b7aa8" stroke-width="1" />
  </g>

  
  <text x="80" y="85" class="title">AI: Liberation vs Domination (MOQ Contrast)</text>
  <text x="80" y="120" class="sub">AI is a static quality amplifier — outcome depends on which value field controls it and whether humans remain value nodes.</text>

  
  <g transform="translate(80,155)">
    <rect x="0" y="0" width="1440" height="110" rx="22" fill="url(#cardFill)" stroke="url(#neon)" stroke-width="2" filter="softGlow" />
    <text x="28" y="45" class="h">Core Distinction</text>
    <text x="260" y="45" class="t">AI magnifies the moral quality of the social field that embeds it.</text>
    <text x="260" y="76" class="t">Liberation: static power serves living value fields • Domination: static power replaces living value fields.</text>

    
    <g transform="translate(1270,55)" opacity="0.95">
      
      <circle cx="-70" cy="0" r="16" fill="#0e2142" stroke="url(#neon)" stroke-width="2.5" filter="glow" />
      <circle cx="-70" cy="0" r="7" fill="url(#neon)" opacity="0.9" />
      
      <rect x="-10" y="-16" width="32" height="32" rx="6" fill="#0b2a3a" stroke="url(#neon)" stroke-width="2.5" filter="glow" />
      <circle cx="6" cy="0" r="6" fill="url(#neon)" opacity="0.9" />
      <text x="-98" y="38" class="mono">human</text>
      <text x="-2" y="38" class="mono">AI</text>
    </g>
  <g transform="translate(40,58)"><circle cx="0" cy="0" r="10" fill="#05060b" stroke="url(#neon)" stroke-width="2" opacity="0.95" /><text x="-6" y="6" class="mono" font-size="14" opacity="0.95">1</text></g></g>

  
  <g transform="translate(80,295)">
    <rect x="0" y="0" width="700" height="540" rx="22" fill="url(#cardFill)" stroke="url(#lib)" stroke-width="2.5" filter="softGlow" />
    <text x="30" y="55" class="h">AI as Liberation</text>
    <text x="30" y="86" class="t">Static power serving living value fields</text>

    
    <g transform="translate(350,215)">
      
      <circle cx="0" cy="0" r="150" fill="none" stroke="url(#lib)" stroke-width="3" opacity="0.9" filter="glow" />
      <circle cx="0" cy="0" r="120" fill="none" stroke="url(#lib)" stroke-width="2" opacity="0.35" />
      
      <circle cx="0" cy="0" r="22" fill="#0e2142" stroke="url(#lib)" stroke-width="3" filter="glow" />
      <circle cx="0" cy="0" r="10" fill="url(#lib)" opacity="0.9" />
      <text x="-36" y="52" class="mono">human</text>

      
      <g transform="translate(-90,-60)">
        <rect x="-12" y="-12" width="24" height="24" rx="5" fill="#0b2a3a" stroke="url(#lib)" stroke-width="2.5" filter="glow" />
        <circle cx="0" cy="0" r="5" fill="url(#lib)" />
      </g>
      <g transform="translate(100,-40)">
        <rect x="-12" y="-12" width="24" height="24" rx="5" fill="#0b2a3a" stroke="url(#lib)" stroke-width="2.5" filter="glow" />
        <circle cx="0" cy="0" r="5" fill="url(#lib)" />
      </g>
      <g transform="translate(70,85)">
        <rect x="-12" y="-12" width="24" height="24" rx="5" fill="#0b2a3a" stroke="url(#lib)" stroke-width="2.5" filter="glow" />
        <circle cx="0" cy="0" r="5" fill="url(#lib)" />
      </g>

      
      <path d="M-78 -52 C-50 -35 -30 -20 -16 -10" stroke="url(#lib)" stroke-width="2.5" fill="none" marker-end="url(#arrow)" opacity="0.9" />
      <path d="M86 -30 C55 -20 30 -12 16 -6" stroke="url(#lib)" stroke-width="2.5" fill="none" marker-end="url(#arrow)" opacity="0.9" />
      <path d="M60 72 C40 50 26 30 12 14" stroke="url(#lib)" stroke-width="2.5" fill="none" marker-end="url(#arrow)" opacity="0.9" />

      <text x="-120" y="-170" class="k">Humans remain value nodes</text>
      <text x="-120" y="-148" class="s">AI augments capability &amp; reduces suffering</text>
    <g transform="translate(-190,-40)"><circle cx="0" cy="0" r="10" fill="#05060b" stroke="url(#lib)" stroke-width="2" opacity="0.95" /><text x="-6" y="6" class="mono" font-size="14" opacity="0.95">4</text></g><g transform="translate(0,0)"><circle cx="0" cy="0" r="10" fill="#05060b" stroke="url(#lib)" stroke-width="2" opacity="0.95" /><text x="-6" y="6" class="mono" font-size="14" opacity="0.95">2</text></g><g transform="translate(-95,-70)"><circle cx="0" cy="0" r="10" fill="#05060b" stroke="url(#lib)" stroke-width="2" opacity="0.95" /><text x="-6" y="6" class="mono" font-size="14" opacity="0.95">3</text></g><g transform="translate(0,140)"><circle cx="0" cy="0" r="10" fill="#05060b" stroke="url(#lib)" stroke-width="2" opacity="0.95" /><text x="-6" y="6" class="mono" font-size="14" opacity="0.95">5</text></g></g>

    
    <g transform="translate(30,365)">
      <text x="0" y="0" class="k">Signatures</text>
      <text x="0" y="28" class="t">• AI augments (not replaces) meaningful human roles</text>
      <text x="0" y="54" class="t">• Reciprocity preserved: contribution ↔ recognition ↔ dignity</text>
      <text x="0" y="80" class="t">• Power distributed &amp; accountable</text>
      <text x="0" y="106" class="t">• Dynamic Quality access increases: creativity, care, learning</text>

      <text x="0" y="140" class="k">Master Signal</text>
      <text x="0" y="166" class="t">High willingness to act &amp; sacrifice for the field</text>
    </g>
  </g>

  
  <g transform="translate(820,295)">
    <rect x="0" y="0" width="700" height="540" rx="22" fill="url(#cardFill)" stroke="url(#dom)" stroke-width="2.5" filter="softGlow" />
    <text x="30" y="55" class="h">AI as Domination</text>
    <text x="30" y="86" class="t">Static power replacing living value fields</text>

    
    <g transform="translate(350,215)">
      
      <circle cx="0" cy="0" r="150" fill="none" stroke="url(#dom)" stroke-width="3" opacity="0.9" filter="glow" stroke-dasharray="18 14" stroke-linecap="round" />
      <circle cx="0" cy="0" r="120" fill="none" stroke="url(#dom)" stroke-width="2" opacity="0.35" />

      
      <g transform="translate(0,-175)"><circle cx="0" cy="0" r="26" fill="none" stroke="url(#dom)" stroke-width="3" opacity="0.35" /><circle cx="0" cy="0" r="44" fill="none" stroke="url(#dom)" stroke-width="2" opacity="0.20" /><circle cx="0" cy="0" r="62" fill="none" stroke="url(#dom)" stroke-width="1.6" opacity="0.12" /><rect x="-14" y="-14" width="28" height="28" rx="6" fill="#0b2a3a" stroke="url(#dom)" stroke-width="2" filter="glow" /><text x="-18" y="32" class="mono" font-size="10" opacity="0.85">POLICY</text><path d="M0 14 C0 55 0 85 0 115" stroke="url(#dom)" stroke-width="2.2" fill="none" marker-end="url(#arrow)" opacity="0.9" /></g><rect x="-48" y="-48" width="96" height="96" rx="18" fill="none" stroke="url(#dom)" stroke-width="2" opacity="0.55" /><rect x="-20" y="-20" width="40" height="40" rx="8" fill="#0b2a3a" stroke="url(#dom)" stroke-width="3" filter="glow" />
      <text x="-10" y="5" class="mono" font-size="10" opacity="0.9">AI</text><circle cx="0" cy="0" r="8" fill="url(#dom)" opacity="0.9" />
      <text x="-45" y="62" class="mono">PLATFORM</text>

      
      <g transform="translate(-95,-65)">
        <circle cx="0" cy="0" r="24" fill="none" stroke="url(#dom)" stroke-width="1.6" opacity="0.14" /><circle cx="0" cy="0" r="30" fill="none" stroke="url(#dom)" stroke-width="1.4" opacity="0.10" /><circle cx="0" cy="0" r="16" fill="#0e2142" stroke="url(#dom)" stroke-width="2.5" filter="glow" />
        <circle cx="0" cy="0" r="7" fill="url(#dom)" opacity="0.9" />
      </g>
      <g transform="translate(105,-55)">
        <circle cx="0" cy="0" r="24" fill="none" stroke="url(#dom)" stroke-width="1.6" opacity="0.14" /><circle cx="0" cy="0" r="30" fill="none" stroke="url(#dom)" stroke-width="1.4" opacity="0.10" /><circle cx="0" cy="0" r="16" fill="#0e2142" stroke="url(#dom)" stroke-width="2.5" filter="glow" />
        <circle cx="0" cy="0" r="7" fill="url(#dom)" opacity="0.9" />
      </g>
      <g transform="translate(70,95)">
        <circle cx="0" cy="0" r="24" fill="none" stroke="url(#dom)" stroke-width="1.6" opacity="0.14" /><circle cx="0" cy="0" r="30" fill="none" stroke="url(#dom)" stroke-width="1.4" opacity="0.10" /><circle cx="0" cy="0" r="16" fill="#0e2142" stroke="url(#dom)" stroke-width="2.5" filter="glow" />
        <circle cx="0" cy="0" r="7" fill="url(#dom)" opacity="0.9" />
      </g>
      <g transform="translate(-80,90)">
        <circle cx="0" cy="0" r="24" fill="none" stroke="url(#dom)" stroke-width="1.6" opacity="0.14" /><circle cx="0" cy="0" r="30" fill="none" stroke="url(#dom)" stroke-width="1.4" opacity="0.10" /><circle cx="0" cy="0" r="16" fill="#0e2142" stroke="url(#dom)" stroke-width="2.5" filter="glow" />
        <circle cx="0" cy="0" r="7" fill="url(#dom)" opacity="0.9" />
      </g>

      
      <path d="M0 -18 C0 -45 -10 -70 -35 -95" stroke="url(#dom)" stroke-width="2.5" fill="none" marker-end="url(#arrow)" opacity="0.9" />
      <path d="M18 -6 C50 -20 78 -35 100 -50" stroke="url(#dom)" stroke-width="2.5" fill="none" marker-end="url(#arrow)" opacity="0.9" />
      <path d="M10 18 C25 45 42 70 60 92" stroke="url(#dom)" stroke-width="2.5" fill="none" marker-end="url(#arrow)" opacity="0.9" />

      <text x="-120" y="-170" class="k">Humans become dependents</text>
      <text x="-120" y="-148" class="s">AI replaces participation &amp; concentrates power</text>
    <g transform="translate(-190,-40)"><circle cx="0" cy="0" r="10" fill="#05060b" stroke="url(#dom)" stroke-width="2" opacity="0.95" /><text x="-6" y="6" class="mono" font-size="14" opacity="0.95">6</text></g><g transform="translate(135,10)"><circle cx="0" cy="0" r="10" fill="#05060b" stroke="url(#dom)" stroke-width="2" opacity="0.95" /><text x="-6" y="6" class="mono" font-size="14" opacity="0.95">7</text></g></g>

    
    <g transform="translate(30,365)">
      <text x="0" y="0" class="k">Signatures</text>
      <text x="0" y="28" class="t">• Humans displaced from contribution &amp; responsibility</text>
      <text x="0" y="54" class="t">• Reciprocity breaks: dependency or coercion replaces dignity</text>
      <text x="0" y="80" class="t">• Power centralized, opaque, insulated</text>
      <text x="0" y="106" class="t">• Dynamic Quality suppressed: fear, conformity, control</text>

      <text x="0" y="140" class="k">Master Signal</text>
      <text x="0" y="166" class="t">Willingness to act &amp; sacrifice collapses</text>
    </g>
  </g>

  
  <g transform="translate(80,845)">
    <rect x="0" y="0" width="1440" height="40" rx="14" fill="#0a1630" stroke="url(#neon)" stroke-width="2" opacity="0.95" filter="glow" />
    <text x="22" y="26" class="t">
      Decisive test: Are humans still needed as value carriers (agency, responsibility, risk, sacrifice) — or has static power replaced living participation?
    </text>
  <g transform="translate(1450,30)"><circle cx="0" cy="0" r="10" fill="#05060b" stroke="url(#neon)" stroke-width="2" opacity="0.95" /><text x="-6" y="6" class="mono" font-size="14" opacity="0.95">8</text></g></g>
</svg>